<svg width="28" height="28" viewBox="0 0 28 28" fill="none" xmlns="http://www.w3.org/2000/svg">
<path d="M12.2536 17.4435C11.4674 17.4435 11.0069 17.001 11.0069 16.2068V15.2877C7.70497 15.0608 4.41426 14.3801 1 13.0752V11.2032C5.20043 13.0639 9.41209 13.722 13.9944 13.722C18.5879 13.722 22.7996 13.0639 27 11.2032V13.0752C23.5857 14.3801 20.295 15.0608 16.9931 15.2877V16.2068C16.9931 17.001 16.5326 17.4435 15.7464 17.4435H12.2536ZM4.47041 24.9886H23.5296C25.8544 24.9886 27 23.854 27 21.5281V10.4884C27 8.16244 25.8544 7.02785 23.5296 7.02785H4.47041C2.1568 7.02785 1 8.16244 1 10.4884V21.5281C1 23.854 2.1568 24.9886 4.47041 24.9886ZM8.30022 8.01495H10.041V6.0067C10.041 5.1444 10.5464 4.65652 11.4225 4.65652H16.5775C17.4536 4.65652 17.9477 5.1444 17.9477 6.0067V7.99225H19.6886V6.13151C19.6886 3.99845 18.5766 3 16.5439 3H11.4449C9.52441 3 8.30022 3.99845 8.30022 6.13151V8.01495Z" fill="#CAFF33"/>
</svg>
