<svg width="24" height="24" viewBox="0 0 24 24" fill="none" xmlns="http://www.w3.org/2000/svg">
<g clip-path="url(#clip0_108_4629)">
<path d="M19.7262 11.2148C19.7262 11.8131 19.7343 12.4074 19.7222 13.0057C19.7142 13.3284 19.8065 13.6118 19.9752 13.8795C20.4088 14.5801 20.9829 15.1666 21.5651 15.7452C21.7819 15.9616 22.0067 16.1663 22.2355 16.3671C22.348 16.4655 22.4001 16.5678 22.4001 16.7213C22.3921 17.3786 22.3921 18.032 22.3961 18.6893C22.4001 19.2364 22.1593 19.6458 21.6574 19.8741C21.1435 20.1063 20.6617 20.0079 20.2401 19.6497C19.3689 18.9019 18.5017 18.1501 17.6345 17.4022C17.0443 16.8906 16.4581 16.371 15.8559 15.8751C15.6431 15.6979 15.3902 15.568 15.1453 15.4342C14.7839 15.2374 14.3945 15.1311 13.9729 15.1469C13.6678 15.1587 13.3546 15.1626 13.0495 15.139C12.6039 15.1036 12.2867 14.8005 12.2265 14.3833C12.1703 14.0172 12.3911 13.6236 12.7604 13.4819C12.901 13.4268 13.0575 13.4032 13.2101 13.4032C14.3664 13.3954 15.5227 13.3993 16.683 13.3993C17.1166 13.3993 17.2732 13.2458 17.2732 12.8168C17.2732 11.9508 17.2691 11.0849 17.2732 10.219C17.2772 9.88834 17.1607 9.62856 16.9078 9.40421C15.4504 8.12106 14.001 6.83004 12.5477 5.53902C12.1582 5.19265 12.114 4.68096 12.4393 4.30704C12.7604 3.93311 13.2864 3.89769 13.6999 4.21257C15.5588 5.62955 17.4137 7.04652 19.2806 8.45562C19.5897 8.68785 19.7343 8.97124 19.7303 9.34517C19.7222 9.96706 19.7262 10.589 19.7262 11.2148Z" fill="#CAFF33"/>
<path d="M0.804021 17.7644C0.804021 17.4101 0.808036 17.0559 0.800006 16.7017C0.795991 16.5639 0.8522 16.4734 0.944542 16.3789C1.55079 15.7688 2.149 15.1509 2.7432 14.529C2.86766 14.3991 2.96001 14.2456 3.06841 14.1039C3.35346 13.7221 3.48595 13.3048 3.47391 12.8168C3.44982 11.6911 3.47792 10.5614 3.46186 9.43178C3.45384 8.98701 3.61443 8.67213 3.97978 8.39661C5.83465 7.01112 7.66945 5.60202 9.51227 4.19685C9.8977 3.90165 10.4277 3.94888 10.7408 4.30312C11.062 4.66524 11.0339 5.1848 10.6605 5.5233C10.0944 6.03498 9.5203 6.53486 8.95019 7.04261C8.04685 7.84162 7.1435 8.64458 6.24015 9.44359C6.02737 9.63252 5.92298 9.86081 5.92298 10.1363C5.92298 11.0534 5.91897 11.9705 5.92298 12.8916C5.92298 13.2301 6.09963 13.3954 6.44893 13.3954C7.64134 13.3993 8.82975 13.3954 10.0222 13.3993C10.5842 13.3993 10.9777 13.785 10.9657 14.3046C10.9576 14.7021 10.6645 15.0603 10.259 15.1194C10.0181 15.1548 9.76521 15.1705 9.5203 15.1469C8.69726 15.0682 8.00268 15.3634 7.38841 15.8436C6.76209 16.3317 6.17592 16.8748 5.5777 17.3905C4.69844 18.1462 3.8232 18.9098 2.93993 19.6616C2.22529 20.2716 1.16937 20.004 0.864244 19.1341C0.824096 19.0239 0.812051 18.9019 0.808036 18.7878C0.800006 18.4493 0.804021 18.1068 0.804021 17.7644Z" fill="#CAFF33"/>
<path d="M12.1704 12.0296C12.1704 12.2185 12.1704 12.3956 12.1704 12.5885C11.8331 12.5885 11.5119 12.5885 11.1627 12.5885C11.1627 12.435 11.1586 12.2854 11.1627 12.1358C11.1667 12.0256 11.1345 11.9784 11.0181 11.9508C10.6849 11.8721 10.3757 11.7383 10.0867 11.51C10.2713 11.2699 10.448 11.0416 10.6086 10.8291C10.9137 10.9432 11.1908 11.077 11.4838 11.1439C11.6966 11.1912 11.9335 11.1597 12.1543 11.1243C12.3229 11.0967 12.4313 10.9668 12.4434 10.7897C12.4595 10.6086 12.3631 10.4827 12.2025 10.4197C11.9295 10.3174 11.6444 10.2387 11.3674 10.1481C11.1667 10.0812 10.9579 10.0222 10.7612 9.93951C10.2995 9.74665 10.0545 9.40421 10.0425 8.9004C10.0305 8.37297 10.2312 7.94788 10.713 7.71959C11.0261 7.57002 11.2951 7.45981 11.1386 7.02291C11.4798 7.02291 11.7769 7.01897 12.078 7.03078C12.1102 7.03078 12.1664 7.12918 12.1664 7.18429C12.1864 7.51885 12.1864 7.51098 12.5036 7.62119C12.6883 7.68416 12.865 7.77469 13.0657 7.86522C12.8971 8.12106 12.7606 8.34542 12.608 8.55796C12.5839 8.58945 12.4876 8.58552 12.4314 8.56977C12.1664 8.50286 11.9094 8.41627 11.6444 8.3651C11.54 8.34542 11.4196 8.37691 11.3112 8.40446C11.1506 8.44775 11.0422 8.55403 11.0302 8.72721C11.0181 8.89646 11.0944 9.02635 11.251 9.08933C11.4557 9.17199 11.6645 9.23496 11.8733 9.30187C12.1021 9.37666 12.339 9.43176 12.5598 9.51442C13.1982 9.75846 13.4551 10.1442 13.423 10.7779C13.3909 11.3604 13.0256 11.7934 12.4233 11.9626C12.3511 11.9863 12.2748 12.0059 12.1704 12.0296Z" fill="#CAFF33"/>
</g>
<defs>
<clipPath id="clip0_108_4629">
<rect width="21.6" height="16" fill="white" transform="translate(0.799805 4)"/>
</clipPath>
</defs>
</svg>
