<svg width="24" height="24" viewBox="0 0 24 24" fill="none" xmlns="http://www.w3.org/2000/svg">
<g clip-path="url(#clip0_108_4616)">
<path d="M14.1544 5.50259C14.1808 5.53339 14.1852 5.54219 14.1896 5.54219C14.6251 5.60377 14.8275 5.9293 15.0607 6.25483C15.329 6.62435 15.6501 6.96308 15.9933 7.27102C16.8951 8.08484 17.4493 9.07023 17.6341 10.2712C17.9552 12.3739 16.7499 14.5339 14.7703 15.3741C11.7658 16.6498 8.40928 14.7098 8.06176 11.4633C7.877 9.73449 8.51046 8.30479 9.83018 7.17863C10.2569 6.81351 10.6132 6.3912 10.9079 5.91171C10.9607 5.82372 11.0575 5.75334 11.1499 5.70935C11.2995 5.63896 11.4666 5.59937 11.6558 5.53339C11.5942 5.4586 11.5502 5.40581 11.5018 5.35303C11.2071 5.04949 10.9123 4.73716 10.6132 4.44242C10.5076 4.33684 10.4592 4.22687 10.4636 4.0773C10.4724 3.45263 10.468 2.83237 10.468 2.2077C10.468 1.95695 10.776 1.55664 11.0267 1.50825C11.3127 1.45106 11.6074 1.42027 11.8933 1.36308C11.9769 1.34548 12.0693 1.2927 12.1177 1.22671C12.5356 0.66363 13.2702 0.659231 13.6838 1.21791C13.7409 1.2927 13.8509 1.34988 13.9433 1.37188C14.2072 1.42907 14.4756 1.45986 14.7439 1.50825C15.0123 1.56104 15.2982 1.90856 15.2982 2.1813C15.2982 2.81037 15.2938 3.44383 15.3026 4.0729C15.307 4.23566 15.2542 4.34564 15.1442 4.46002C14.8099 4.79874 14.4888 5.14627 14.1544 5.50259ZM12.3068 7.95287C12.2936 8.00566 12.2805 8.03645 12.2849 8.06285C12.342 8.35758 12.2057 8.48515 11.9329 8.59513C11.4138 8.81069 11.1807 9.24619 11.1939 9.80487C11.2071 10.3592 11.5062 10.7023 12.0077 10.8826C12.2277 10.9618 12.4564 11.019 12.6764 11.0938C12.8787 11.1598 13.0811 11.2258 13.2746 11.305C13.4374 11.3709 13.5298 11.4985 13.5122 11.6833C13.4946 11.8724 13.3758 11.9824 13.2087 12.0132C13.0371 12.0484 12.8523 12.0792 12.6896 12.0396C12.3728 11.9648 12.0693 11.8372 11.735 11.7229C11.5854 11.9208 11.4138 12.1452 11.2071 12.4223C11.5194 12.5587 11.7878 12.6995 12.0737 12.7962C12.2365 12.849 12.3024 12.9194 12.2805 13.0866C12.2673 13.2053 12.2761 13.3285 12.2761 13.4649C12.5268 13.4649 12.738 13.4649 12.9491 13.4649C13.2526 13.4649 13.2658 13.4649 13.2482 13.1526C13.2394 12.959 13.2834 12.8534 13.4946 12.827C13.6046 12.8138 13.7145 12.7522 13.8157 12.6951C14.282 12.4399 14.4756 12.0308 14.4668 11.5117C14.458 11.019 14.2116 10.6803 13.7717 10.4823C13.5738 10.3943 13.3626 10.3284 13.1515 10.258C12.8875 10.17 12.6236 10.0908 12.3596 9.99403C12.1969 9.93244 12.1309 9.80047 12.1441 9.62451C12.1573 9.45735 12.2585 9.34297 12.4124 9.31658C12.5972 9.28578 12.7951 9.26819 12.9755 9.29898C13.1955 9.33857 13.4022 9.43975 13.6354 9.51893C13.7805 9.29458 13.9301 9.05703 14.1061 8.77989C13.9037 8.68751 13.7321 8.57314 13.5474 8.54234C13.2878 8.49835 13.2087 8.37958 13.2394 8.13323C13.2482 8.07604 13.1691 7.96167 13.1207 7.95727C12.8567 7.94407 12.5796 7.95287 12.3068 7.95287Z" fill="#CAFF33"/>
<path d="M12.5438 23.1912C11.6068 23.1912 10.6654 23.1648 9.72837 23.2C9.0993 23.222 8.56262 23.0328 8.05672 22.6985C7.33968 22.219 6.68422 21.6735 6.11234 21.0225C5.26772 20.0591 4.41431 19.0957 3.56969 18.1323C2.87903 17.3405 3.19137 16.1703 4.17676 15.8492C4.29113 15.8096 4.4231 15.7964 4.54188 15.7964C5.32491 15.792 6.11234 15.7876 6.89537 15.8008C7.00535 15.8008 7.13732 15.858 7.2165 15.9328C7.75319 16.4519 8.28108 16.9841 8.80456 17.5164C8.91014 17.622 9.00692 17.644 9.15649 17.622C9.47322 17.5736 9.79875 17.5296 10.1199 17.5296C11.6024 17.5208 13.0804 17.5252 14.5629 17.5252C15.0688 17.5252 15.4427 17.7848 15.5747 18.2159C15.7771 18.8669 15.302 19.4784 14.5761 19.4828C13.5951 19.4872 12.6097 19.4828 11.6288 19.4828C11.4528 19.4828 11.2768 19.4784 11.1009 19.4828C10.7841 19.4916 10.5774 19.694 10.573 19.9799C10.573 20.2702 10.7797 20.4902 11.0921 20.4902C12.6537 20.4946 14.2154 20.4946 15.7771 20.4902C16.0938 20.4902 16.3226 20.3142 16.5425 20.1031C17.5631 19.1221 18.5837 18.1411 19.6086 17.1645C20.0266 16.7642 20.5808 16.7466 20.9768 17.1029C21.4035 17.49 21.4123 18.1147 20.9812 18.5502C20.5281 19.0121 20.0661 19.4476 19.6086 19.8919C18.5969 20.8729 17.5851 21.8495 16.5777 22.8305C16.3314 23.068 16.0586 23.1912 15.7111 23.1912C14.6553 23.1868 13.5995 23.1912 12.5438 23.1912Z" fill="#CAFF33"/>
<path d="M7.30939 4.60077C7.7361 5.02748 8.16281 5.45419 8.58072 5.8721C8.32117 6.13164 8.04843 6.40438 7.77569 6.67272C7.37098 6.25481 6.94427 5.81491 6.53516 5.3926C6.7771 5.14625 7.04985 4.86471 7.30939 4.60077Z" fill="#CAFF33"/>
<path d="M18.4169 4.60077C18.6764 4.86031 18.9447 5.13745 19.1955 5.3882C18.7776 5.80611 18.3421 6.24162 17.9198 6.65953C17.6646 6.40438 17.3963 6.12724 17.1279 5.8589C17.5458 5.44979 17.9769 5.02748 18.4169 4.60077Z" fill="#CAFF33"/>
<path d="M19.4288 11.5337C19.4288 11.1598 19.4244 10.8166 19.4332 10.4735C19.4332 10.4295 19.5168 10.3503 19.5608 10.3503C20.0975 10.3416 20.6298 10.3416 21.1665 10.3503C21.2105 10.3503 21.294 10.4163 21.294 10.4515C21.3028 10.8079 21.2984 11.1642 21.2984 11.5337C20.6694 11.5337 20.0623 11.5337 19.4288 11.5337Z" fill="#CAFF33"/>
<path d="M6.28369 11.5469C5.67662 11.5469 5.10914 11.5513 4.53726 11.5425C4.49327 11.5425 4.42288 11.4589 4.41849 11.4105C4.40969 11.1026 4.40529 10.7947 4.41849 10.4867C4.41849 10.4383 4.50647 10.3503 4.55486 10.3503C5.08274 10.3416 5.61063 10.3416 6.13852 10.3503C6.18691 10.3503 6.27489 10.4207 6.27489 10.4647C6.28808 10.8079 6.28369 11.1598 6.28369 11.5469Z" fill="#CAFF33"/>
</g>
<defs>
<clipPath id="clip0_108_4616">
<rect width="18.1021" height="22.4" fill="white" transform="translate(3.2002 0.799988)"/>
</clipPath>
</defs>
</svg>
